<svg width="44" height="45" viewBox="0 0 44 45" fill="none" xmlns="http://www.w3.org/2000/svg">
<rect y="0.5" width="44" height="44" rx="22" fill="black"/>
<path d="M27 20.5H29C31 20.5 32 19.5 32 17.5V15.5C32 13.5 31 12.5 29 12.5H27C25 12.5 24 13.5 24 15.5V17.5C24 19.5 25 20.5 27 20.5Z" stroke="white" stroke-width="1.5" stroke-miterlimit="10" stroke-linecap="round" stroke-linejoin="round"/>
<path d="M15 32.5H17C19 32.5 20 31.5 20 29.5V27.5C20 25.5 19 24.5 17 24.5H15C13 24.5 12 25.5 12 27.5V29.5C12 31.5 13 32.5 15 32.5Z" stroke="white" stroke-width="1.5" stroke-miterlimit="10" stroke-linecap="round" stroke-linejoin="round"/>
<path d="M16 20.5C18.2091 20.5 20 18.7091 20 16.5C20 14.2909 18.2091 12.5 16 12.5C13.7909 12.5 12 14.2909 12 16.5C12 18.7091 13.7909 20.5 16 20.5Z" stroke="white" stroke-width="1.5" stroke-miterlimit="10" stroke-linecap="round" stroke-linejoin="round"/>
<path d="M28 32.5C30.2091 32.5 32 30.7091 32 28.5C32 26.2909 30.2091 24.5 28 24.5C25.7909 24.5 24 26.2909 24 28.5C24 30.7091 25.7909 32.5 28 32.5Z" stroke="white" stroke-width="1.5" stroke-miterlimit="10" stroke-linecap="round" stroke-linejoin="round"/>
</svg>
